# xmcd
#
# Track frame offsets: 
#        150
#        15113
#        32577
#        55462
#        72485
#        92384
#
# Disc length: 1533 seconds
#
# Revision: 0
# Processed by: cddbd v1.5.2PL0 Copyright (c) Steve Scherf et al.
# Submitted via: ExactAudioCopy v0.99pb5
#
DISCID=3f05fb06
DTITLE=Milwaukee Slim - Milwaukee Slim
DYEAR=2009
DGENRE=Blues
TTITLE0=Bright Lights, Big City
TTITLE1=C'mon In This House
TTITLE2=Mannish Boy
TTITLE3=Runnin' and Hidin'
TTITLE4=Tore Down
TTITLE5=Hoochie Coochie Man
EXTD=
EXTT0=
EXTT1=
EXTT2=
EXTT3=
EXTT4=
EXTT5=
PLAYORDER=
